<svg xmlns="http://www.w3.org/2000/svg" width="49" height="48" viewBox="0 0 49 48">
    <g fill="none" fill-rule="evenodd">
        <g fill="#FFF">
            <g>
                <g>
                    <g>
                        <g>
                            <g fill-rule="nonzero">
                                <path d="M19.019 45.656c.142-1.042 1.062-1.77 2.064-1.641l.034.004c.389.057.785.103 1.175.136 1.023.085 1.784 1.014 1.702 2.074-.082 1.06-.977 1.85-2 1.765-.465-.039-.936-.093-1.398-.161-.74-.11-1.315-.656-1.517-1.352-.076-.26-.1-.54-.06-.825zm9.63-2.592c.995-.266 2.018.317 2.286 1.306.268.987-.321 2.003-1.316 2.268-.455.122-.92.23-1.38.324-.952.193-1.883-.372-2.158-1.277-.017-.055-.031-.109-.043-.166-.206-1.002.445-1.98 1.455-2.183.386-.079.775-.17 1.156-.272zm-16.432-1.13c.485-.85 1.634-1.18 2.566-.737.356.17.722.332 1.09.48.96.393 1.39 1.419.961 2.295-.428.875-1.554 1.268-2.513.877-.438-.178-.874-.371-1.298-.573-.473-.225-.798-.606-.941-1.038-.14-.42-.105-.886.135-1.304zm22.609-1.552l.145-.085c.879-.527 2.083-.334 2.688.432.606.765.383 1.812-.497 2.339-.399.239-.813.472-1.23.69-.915.48-2.103.224-2.654-.572-.085-.123-.15-.252-.196-.384-.245-.707.07-1.495.818-1.906l.036-.019c.3-.158.6-.324.89-.495zM17.323.828C22.499-.587 27.899-.178 32.778 1.976l.07.029.011.006c.553.246 1.1.515 1.639.807 5.298 2.868 9.227 7.574 11.127 13.301l.057.174 2.474-.775c.678-.213 1.014.147.759.8l-.011.027-2.46 5.98c-.271.659-.974.888-1.572.518l-.027-.018-5.386-3.519c-.594-.389-.537-.88.124-1.1l.028-.009 2.475-.776c-.417-1.276-.953-2.483-1.59-3.61l-.018-.028-.073-.127-.073-.126-.005-.01c-3.33-5.663-9.262-9.268-15.695-9.674l-.076-.004-.076-.004c-.125-.007-.25-.014-.377-.018-.033 0-.065-.002-.098-.003-2.063-.063-4.17.203-6.253.837-2.07.63-3.96 1.576-5.638 2.769l-.097.07-.193.141c-6.531 4.83-9.679 13.469-7.21 21.724.214.718.465 1.416.752 2.095l.003.006c.158.37.329.737.508 1.097.01.018.017.037.025.056.763 1.522 1.717 2.936 2.857 4.223.693.782.625 1.983-.15 2.682-.776.699-1.966.631-2.659-.15-2.283-2.58-3.946-5.578-4.943-8.912-.38-1.27-.65-2.555-.814-3.845l-.005-.024-.001-.016-.002-.016c-.606-4.828.282-9.716 2.608-14.09.228-.428.469-.847.719-1.256l.029-.054.015-.026c.25-.407.516-.81.79-1.199l.032-.039c2.779-3.938 6.663-6.896 11.224-8.521l.138-.05.064-.026.032-.012c.279-.096.563-.19.846-.275.172-.052.346-.104.52-.151.04-.012.08-.02.12-.027zm21.943 34.985c.666-.877 1.955-1.076 2.878-.443.924.633 1.132 1.857.466 2.734-.303.4-.624.797-.954 1.178-.721.837-2.02.96-2.901.275-.328-.256-.552-.589-.667-.948-.191-.604-.074-1.284.379-1.809.275-.32.545-.652.799-.987zm3.149-6.298l.046-.163c.28-.995 1.282-1.567 2.239-1.276.957.29 1.506 1.332 1.227 2.327-.126.453-.269.909-.422 1.354-.337.975-1.37 1.482-2.309 1.132-.56-.208-.96-.675-1.119-1.226-.108-.371-.106-.78.03-1.174.11-.32.213-.647.308-.974z" transform="translate(-314.000000, -554.000000) translate(145.000000, 236.000000) translate(131.000000, 275.000000) translate(38.000000, 40.000000) translate(0.000000, 3.000000) translate(0.000000, -0.000000)"/>
                            </g>
                            <text font-family="DINPro-Bold, DINPro" font-size="12" font-weight="bold" transform="translate(-314.000000, -554.000000) translate(145.000000, 236.000000) translate(131.000000, 275.000000) translate(38.000000, 40.000000) translate(0.000000, 3.000000)">
                                <tspan x="11" y="29">24hr</tspan>
                            </text>
                        </g>
                    </g>
                </g>
            </g>
        </g>
    </g>
</svg>
