<svg xmlns="http://www.w3.org/2000/svg" width="61" height="68" viewBox="0 0 61 68">
    <g fill="none" fill-rule="evenodd">
        <g fill-rule="nonzero">
            <g>
                <g>
                    <g>
                        <g>
                            <path fill="#111316" d="M1.233 50.143L1.233 17.627 29.652 1.367 58.061 17.622 58.061 50.143 29.652 66.398z" transform="translate(-219.000000, -276.000000) translate(145.000000, 236.000000) translate(74.000000, 40.000000) translate(0.000000, 0.000000) translate(0.352941, 0.000000)"/>
                            <path fill="#FFF" d="M29.652 2.723l27.224 15.58v31.159l-27.224 15.58-27.234-15.58v-31.16L29.652 2.724m0-2.712L.043 16.947v33.871l29.61 16.936L59.25 50.818V16.947L29.652.01z" transform="translate(-219.000000, -276.000000) translate(145.000000, 236.000000) translate(74.000000, 40.000000) translate(0.000000, 0.000000) translate(0.352941, 0.000000)"/>
                        </g>
                        <g fill="#FFF">
                            <path d="M16.58 27.806L8.509 25.77 8.509 31.395 16.58 35.979zM17.318 27.741L17.318 35.979 33.86 26.581 33.86 20.966zM16.57 11.885L.038 16.039.038 19.934 16.57 24.109zM17.313 11.939L17.313 24.056 25.379 20.853 25.379 15.249zM16.57.027L8.509 4.599 8.509 10.22 16.57 8.194zM17.313.021L17.313 8.248 33.86 15.034 33.86 9.408z" transform="translate(-219.000000, -276.000000) translate(145.000000, 236.000000) translate(74.000000, 40.000000) translate(0.000000, 0.000000) translate(13.058824, 16.235294)"/>
                        </g>
                    </g>
                </g>
            </g>
        </g>
    </g>
</svg>
